<svg width="41" height="36" viewBox="0 0 41 36" fill="none" xmlns="http://www.w3.org/2000/svg">
<path d="M2 7.28576C2 6.12605 2.4255 5.01385 3.18289 4.19381C3.94029 3.37378 4.96753 2.91309 6.03865 2.91309H34.3092C35.3803 2.91309 36.4075 3.37378 37.1649 4.19381C37.9223 5.01385 38.3478 6.12605 38.3478 7.28576V29.1491C38.3478 30.3088 37.9223 31.421 37.1649 32.2411C36.4075 33.0611 35.3803 33.5218 34.3092 33.5218H6.03865C4.96753 33.5218 3.94029 33.0611 3.18289 32.2411C2.4255 31.421 2 30.3088 2 29.1491V7.28576Z" stroke="#1B1C1E" stroke-width="4" stroke-linecap="round" stroke-linejoin="round"/>
<path d="M2 7.2865L20.1739 20.4045L38.3478 7.2865" stroke="#1B1C1E" stroke-width="4" stroke-linecap="round" stroke-linejoin="round"/>
</svg>
